<?xml version="1.0" encoding="UTF-8" standalone="no"?>
<!-- Created with Inkscape (http://www.inkscape.org/) -->

<svg
   width="120.65001mm"
   height="92.584549mm"
   viewBox="0 0 120.65001 92.584549"
   version="1.1"
   id="svg1"
   xml:space="preserve"
   xmlns:inkscape="http://www.inkscape.org/namespaces/inkscape"
   xmlns:sodipodi="http://sodipodi.sourceforge.net/DTD/sodipodi-0.dtd"
   xmlns="http://www.w3.org/2000/svg"
   xmlns:svg="http://www.w3.org/2000/svg"><sodipodi:namedview
     id="namedview1"
     pagecolor="#505050"
     bordercolor="#eeeeee"
     borderopacity="1"
     inkscape:showpageshadow="0"
     inkscape:pageopacity="0"
     inkscape:pagecheckerboard="0"
     inkscape:deskcolor="#d1d1d1"
     inkscape:document-units="mm" /><defs
     id="defs1" /><g
     inkscape:label="Layer 1"
     inkscape:groupmode="layer"
     id="layer1"
     transform="translate(-215.33722,-93.646932)"><path
       id="path1"
       style="fill:#f9f9f9"
       d="m 277.76082,93.646997 c -5.38049,0.001 -12.52129,0.01339 -22.02191,0.03049 l -38.24159,0.06873 -0.71675,0.661458 c -1.49789,1.382149 -1.44273,0.372879 -1.44229,26.251625 4.6e-4,26.64299 -0.11086,25.03612 1.82469,26.32914 l 0.89917,0.60048 37.86229,-0.001 c 37.31402,-9.8e-4 37.87494,-0.008 38.72477,-0.52658 0.47427,-0.28917 1.09886,-0.91376 1.38803,-1.38803 0.51445,-0.84381 0.52613,-1.38099 0.5271,-25.03155 0.001,-26.782935 0.0917,-25.379449 -1.71669,-26.497088 -0.64637,-0.399442 -0.94535,-0.500691 -17.08682,-0.497644 z m -26.04285,11.458733 h 8.46667 v 11.2789 h 11.27889 v 8.46666 h -11.27889 v 11.2789 h -8.46667 v -11.2789 h -11.2789 v -8.46666 h 11.2789 z m 52.78437,7.82278 -0.005,15.27968 c -0.003,8.63962 -0.11892,16.08455 -0.26717,17.13178 -0.71745,5.06773 -4.71323,9.11725 -9.78132,9.91257 -1.0671,0.16746 -10.50597,0.2747 -24.87083,0.2837 l -23.15104,0.014 1.85828,0.60254 c 3.1877,1.03301 5.09299,2.22011 7.69359,4.79454 2.93193,2.90241 4.30094,5.26885 5.54953,9.59425 0.0765,0.25894 3.07055,0.33073 13.81983,0.33073 h 13.72474 l 0.7059,-2.14251 c 1.75145,-5.31604 5.15833,-9.14728 10.35803,-11.64838 5.57604,-2.68212 12.5881,-2.34766 18.06091,0.86196 0.83502,0.48972 2.5302,1.90732 3.76721,3.14968 2.47982,2.49053 4.10084,5.17149 4.9258,8.14679 l 0.46457,1.67483 3.10731,-0.0873 c 3.48445,-0.0978 4.19541,-0.3914 5.0617,-2.09031 0.42682,-0.83705 0.46264,-2.28269 0.46302,-18.69033 4e-4,-17.33085 -0.0135,-17.82067 -0.54673,-19.24586 -1.81976,-4.86373 -10.09684,-12.99179 -16.51837,-16.22071 -2.90899,-1.46272 -3.98813,-1.65158 -9.44077,-1.65158 z m 8.04809,9.41079 c 1.61861,0.0658 4.15046,0.41144 5.44618,0.79375 4.98036,1.46949 8.76545,5.40746 10.53683,10.96212 0.70206,2.20155 1.10484,4.48498 1.10484,6.26629 v 1.40663 h -9.525 -9.525 v -9.62628 -9.62629 l 0.7276,-0.14004 c 0.25701,-0.0493 0.69502,-0.0581 1.23455,-0.0362 z m -96.91191,32.48277 c -0.30546,0.0356 -0.31255,1.01065 -0.24702,6.73809 0.0742,6.48831 0.11108,6.93735 0.62684,7.63985 0.30139,0.41051 0.95623,0.95677 1.45521,1.21388 0.71362,0.36768 1.43247,0.45237 3.3693,0.39687 l 2.46238,-0.0708 0.66456,-1.98438 c 1.0575,-3.15805 2.34069,-5.19943 4.83795,-7.69669 2.50536,-2.50535 4.7333,-3.90574 7.7866,-4.89479 l 1.89498,-0.61391 -9.65729,-0.0134 c -8.82084,-0.0122 -11.7181,-0.16391 -13.04365,-0.68368 -0.0565,-0.0221 -0.10623,-0.0361 -0.14986,-0.031 z m 92.74627,8.19072 c -0.86782,-0.009 -1.74914,0.0843 -2.63084,0.29094 -2.40235,0.56306 -3.71668,1.27345 -5.49734,2.97191 -1.71167,1.63265 -2.70679,3.30781 -3.28611,5.53196 -1.56029,5.99038 1.8566,12.04612 7.92924,14.05392 0.66703,0.22049 2.03656,0.32399 3.70416,0.28009 2.33909,-0.0616 2.85295,-0.16681 4.43384,-0.90951 4.26927,-2.00572 6.79985,-5.99371 6.80785,-10.73009 0.0111,-6.34247 -5.38606,-11.42519 -11.4608,-11.48922 z m -66.30344,0.004 c -0.45826,0.0117 -0.90973,0.0538 -1.34927,0.12919 -5.09034,0.8729 -8.92925,4.69587 -9.81543,9.77408 -0.52022,2.98108 0.57859,6.85999 2.64946,9.35188 1.05723,1.27219 3.27542,2.76654 5.0555,3.40548 2.14541,0.77009 5.5309,0.73389 7.78195,-0.0832 7.80458,-2.83291 10.16748,-12.65961 4.54081,-18.88464 -2.11427,-2.3391 -5.65522,-3.77436 -8.86302,-3.69279 z"
       inkscape:export-filename="medicine_van.png"
       inkscape:export-xdpi="96"
       inkscape:export-ydpi="96" /></g></svg>
